<?xml version="1.0" standalone="no"?>
<!DOCTYPE svg PUBLIC "-//W3C//DTD SVG 20010904//EN"
 "http://www.w3.org/TR/2001/REC-SVG-20010904/DTD/svg10.dtd">
<svg version="1.0" xmlns="http://www.w3.org/2000/svg"
 width="500.000000pt" height="500.000000pt" viewBox="0 0 500.000000 500.000000"
 preserveAspectRatio="xMidYMid meet">
<metadata>
Created by potrace 1.16, written by Peter Selinger 2001-2019
</metadata>
<g transform="translate(0.000000,500.000000) scale(0.100000,-0.100000)"
fill="#000000" stroke="none">
<path d="M2443 3025 c-125 -28 -219 -102 -271 -213 -25 -52 -27 -68 -27 -177
0 -109 2 -125 26 -176 69 -146 193 -220 369 -220 142 0 249 48 311 137 27 40
34 44 72 44 24 0 48 5 55 12 8 8 12 47 12 109 0 142 22 133 -300 125 -157 -5
-270 -12 -277 -18 -8 -7 -13 -37 -13 -82 -1 -106 -23 -58 -28 61 -4 79 -1 98
17 135 30 61 63 82 137 86 77 5 116 -14 144 -68 24 -46 30 -47 139 -22 98 23
105 35 65 110 -71 132 -252 198 -431 157z m237 -34 c82 -25 164 -99 184 -168
6 -20 1 -23 -71 -39 -75 -16 -77 -16 -88 2 -21 38 -77 83 -111 90 -98 18 -195
-21 -230 -93 -23 -47 -30 -168 -15 -238 7 -29 25 -70 41 -92 39 -53 108 -72
208 -55 100 17 242 24 242 12 0 -19 -76 -86 -123 -108 -98 -46 -252 -47 -354
-2 -61 27 -129 94 -160 159 -26 52 -28 65 -28 176 0 101 4 127 22 167 64 137
202 213 373 203 41 -2 91 -9 110 -14z"/>
</g>
</svg>
